<?xml version="1.0" encoding="UTF-8"?>
<svg id="Layer_1" xmlns="http://www.w3.org/2000/svg" version="1.1" viewBox="0 0 250.5 250.5">
  <!-- Generator: Adobe Illustrator 29.8.1, SVG Export Plug-In . SVG Version: 2.1.1 Build 2)  -->
  <defs>
    <style>
      .st0 {
        fill: #00acc4;
      }
    </style>
  </defs>
  <path class="st0" d="M241.9,109.6l-22.7-22.7V31.3c0-8.6-7-15.7-15.7-15.7h-15.7c-8.6,0-15.7,7-15.7,15.7v8.7l-31.3-31.3c-4.3-4-8.2-8.7-15.7-8.7s-11.4,4.6-15.7,8.7L8.6,109.6c-4.9,5.1-8.6,8.8-8.6,15.7s6.8,15.7,15.7,15.7h15.7v93.9c0,8.6,7,15.7,15.7,15.7h156.6c8.6,0,15.7-7,15.7-15.7v-93.9h15.7c8.9,0,15.7-6.8,15.7-15.7s-3.7-10.6-8.6-15.7ZM84.8,231.4c-8.1,0-14.6-6.5-14.6-14.6s6.5-14.6,14.6-14.6,14.6,6.5,14.6,14.6-6.5,14.6-14.6,14.6ZM84.8,191c-8.1,0-14.6-6.5-14.6-14.6s6.5-14.6,14.6-14.6,14.6,6.5,14.6,14.6-6.5,14.6-14.6,14.6ZM125.2,231.4c-8.1,0-14.6-6.5-14.6-14.6s6.5-14.6,14.6-14.6,14.6,6.5,14.6,14.6-6.5,14.6-14.6,14.6ZM125.2,191c-8.1,0-14.6-6.5-14.6-14.6s6.5-14.6,14.6-14.6,14.6,6.5,14.6,14.6-6.5,14.6-14.6,14.6ZM180.2,216.8c0,8.1-6.5,14.6-14.6,14.6s-14.6-6.5-14.6-14.6v-40.4c0-8.1,6.5-14.6,14.6-14.6s14.6,6.5,14.6,14.6v40.4ZM180.2,145.6c0,2.8-2.2,5-5,5h-100c-2.8,0-5-2.2-5-5v-19.2c0-2.8,2.2-5,5-5h100c2.8,0,5,2.2,5,5v19.2Z"/>
</svg>